<svg width="23" height="22" viewBox="0 0 23 22" fill="none" xmlns="http://www.w3.org/2000/svg">
<path d="M0.268789 11C0.268789 10.8111 0.29854 10.634 0.358039 10.4688C0.416595 10.3035 0.516706 10.15 0.658374 10.0083L10.0084 0.658336C10.2917 0.375003 10.6284 0.233337 11.0185 0.233337C11.4076 0.233337 11.7438 0.375003 12.0271 0.658337C12.3105 0.94167 12.4521 1.27223 12.4521 1.65C12.4521 2.02778 12.3105 2.35834 12.0271 2.64167L5.08546 9.58334L20.9521 9.58334C21.3535 9.58334 21.6841 9.71934 21.9438 9.99134C22.2035 10.2624 22.3334 10.5986 22.3334 11C22.3334 11.4014 22.1978 11.7381 21.9268 12.0101C21.6548 12.2811 21.3181 12.4167 20.9167 12.4167L5.08546 12.4167L12.0271 19.3583C12.3105 19.6417 12.4521 19.9722 12.4521 20.35C12.4521 20.7278 12.3105 21.0583 12.0271 21.3417C11.7438 21.625 11.4076 21.7667 11.0185 21.7667C10.6284 21.7667 10.2917 21.625 10.0084 21.3417L0.658374 11.9917C0.516706 11.85 0.416595 11.6965 0.358039 11.5313C0.29854 11.366 0.268789 11.1889 0.268789 11Z" fill="white"/>
</svg>
