<svg width="27" height="27" viewBox="0 0 27 27" fill="none" xmlns="http://www.w3.org/2000/svg">
    <path d="M13.5 26.5781C20.7228 26.5781 26.5781 20.7228 26.5781 13.5C26.5781 6.27715 20.7228 0.421875 13.5 0.421875C6.27715 0.421875 0.421875 6.27715 0.421875 13.5C0.421875 20.7228 6.27715 26.5781 13.5 26.5781Z" fill="#E0E0E0"/>
    <path d="M23.9949 21.2941C22.7752 19.6611 21.1914 18.3351 19.3694 17.4215C17.5474 16.5079 15.5374 16.0319 13.4992 16.0313C11.461 16.0306 9.45074 16.5054 7.62817 17.4178C5.80561 18.3303 4.22099 19.6553 3.00024 21.2875C4.21478 22.928 5.79681 24.261 7.61949 25.1798C9.44216 26.0986 11.4548 26.5775 13.4959 26.5781C15.5371 26.5788 17.55 26.1011 19.3732 25.1835C21.1965 24.2659 22.7793 22.9338 23.9949 21.2941Z" fill="grey"/>
    <path d="M13.5 14.3438C16.2959 14.3438 18.5625 12.0772 18.5625 9.28125C18.5625 6.48531 16.2959 4.21875 13.5 4.21875C10.7041 4.21875 8.4375 6.48531 8.4375 9.28125C8.4375 12.0772 10.7041 14.3438 13.5 14.3438Z" fill="grey"/>
    </svg>