<svg width="56" height="56" viewBox="0 0 56 56" fill="none" xmlns="http://www.w3.org/2000/svg">
<path d="M39.8462 25.8461C39.8462 28.1891 39.1514 30.4794 37.8497 32.4275C36.548 34.3756 34.6979 35.894 32.5333 36.7906C30.3687 37.6872 27.9869 37.9218 25.6889 37.4647C23.391 37.0076 21.2802 35.8794 19.6235 34.2226C17.9668 32.5659 16.8386 30.4551 16.3815 28.1572C15.9244 25.8593 16.159 23.4774 17.0556 21.3128C17.9522 19.1482 19.4705 17.2981 21.4186 15.9964C23.3667 14.6948 25.6571 14 28 14C31.1418 14 34.1549 15.2481 36.3765 17.4697C38.5981 19.6912 39.8462 22.7044 39.8462 25.8461ZM56 28C56 33.5379 54.3578 38.9514 51.2812 43.556C48.2045 48.1605 43.8315 51.7494 38.7151 53.8686C33.5988 55.9879 27.9689 56.5424 22.5375 55.462C17.106 54.3816 12.1169 51.7149 8.20102 47.799C4.28515 43.8831 1.61841 38.894 0.538025 33.4625C-0.542361 28.0311 0.012132 22.4012 2.13139 17.2849C4.25064 12.1685 7.83947 7.79553 12.444 4.71885C17.0486 1.64217 22.4621 0 28 0C35.4217 0.0142315 42.5353 2.96879 47.7833 8.21673C53.0312 13.4647 55.9858 20.5783 56 28ZM51.6923 28C51.6937 24.1628 50.7631 20.3826 48.9804 16.9846C47.1978 13.5865 44.6164 10.6724 41.4584 8.49261C38.3004 6.31287 34.6602 4.9328 30.8508 4.47108C27.0415 4.00935 23.177 4.4798 19.5896 5.84196C16.0023 7.20412 12.7995 9.41723 10.2567 12.291C7.71381 15.1647 5.90703 18.6131 4.99167 22.3395C4.07631 26.066 4.07978 29.959 5.00177 33.6839C5.92376 37.4087 7.73668 40.8539 10.2846 43.7231C12.0281 41.2221 14.2748 39.113 16.8808 37.5308C19.8729 40.3973 23.8564 41.9975 28 41.9975C32.1436 41.9975 36.1271 40.3973 39.1192 37.5308C41.7252 39.113 43.9719 41.2221 45.7154 43.7231C49.5725 39.3948 51.7002 33.7975 51.6923 28Z" fill="url(#paint0_linear_3_1204)"/>
<defs>
<linearGradient id="paint0_linear_3_1204" x1="28" y1="0" x2="28" y2="56" gradientUnits="userSpaceOnUse">
<stop stop-color="#07A4E7"/>
<stop offset="0.515625" stop-color="#5AB4DF"/>
<stop offset="1" stop-color="#046DA8"/>
</linearGradient>
</defs>
</svg>
