<svg width="50" height="49" viewBox="0 0 50 49" fill="none" xmlns="http://www.w3.org/2000/svg">
<path d="M24.9706 40.3021L12.8664 47.5938C12.3317 47.934 11.7727 48.0799 11.1894 48.0312C10.606 47.9826 10.0956 47.7882 9.6581 47.4479C9.2206 47.1076 8.88033 46.6828 8.63727 46.1733C8.39421 45.6619 8.3456 45.0903 8.49144 44.4583L11.6998 30.6771L0.98102 21.4167C0.494909 20.9792 0.191576 20.4804 0.07102 19.9204C-0.05148 19.3624 -0.015508 18.816 0.178936 18.2812C0.373381 17.7465 0.665047 17.309 1.05394 16.9687C1.44283 16.6285 1.97755 16.4097 2.6581 16.3125L16.8039 15.0729L22.2727 2.09375C22.5157 1.51042 22.893 1.07292 23.4044 0.78125C23.9138 0.489584 24.4359 0.34375 24.9706 0.34375C25.5053 0.34375 26.0284 0.489584 26.5398 0.78125C27.0492 1.07292 27.4255 1.51042 27.6685 2.09375L33.1373 15.0729L47.2831 16.3125C47.9637 16.4097 48.4984 16.6285 48.8873 16.9687C49.2762 17.309 49.5678 17.7465 49.7623 18.2812C49.9567 18.816 49.9937 19.3624 49.8731 19.9204C49.7506 20.4804 49.4463 20.9792 48.9602 21.4167L38.2414 30.6771L41.4498 44.4583C41.5956 45.0903 41.547 45.6619 41.3039 46.1733C41.0609 46.6828 40.7206 47.1076 40.2831 47.4479C39.8456 47.7882 39.3352 47.9826 38.7519 48.0312C38.1685 48.0799 37.6095 47.934 37.0748 47.5938L24.9706 40.3021Z" fill="url(#paint0_linear_1_56)"/>
<defs>
<linearGradient id="paint0_linear_1_56" x1="24.9712" y1="0.34375" x2="24.9712" y2="48.0404" gradientUnits="userSpaceOnUse">
<stop stop-color="#07A4E7"/>
<stop offset="1" stop-color="#046DA8"/>
</linearGradient>
</defs>
</svg>
