<svg width="15" height="14" viewBox="0 0 15 14" fill="none" xmlns="http://www.w3.org/2000/svg">
<path d="M7.49983 11.7286L3.86439 13.8689C3.70379 13.9688 3.53589 14.0116 3.36068 13.9973C3.18548 13.9831 3.03218 13.926 2.90078 13.8261C2.76938 13.7262 2.66718 13.6015 2.59417 13.452C2.52117 13.3019 2.50657 13.1341 2.55037 12.9486L3.51399 8.9035L0.294646 6.18536C0.148644 6.05695 0.0575391 5.91055 0.0213306 5.74618C-0.0154618 5.58238 -0.00465776 5.422 0.053743 5.26505C0.112144 5.1081 0.199745 4.97968 0.316546 4.8798C0.433348 4.77992 0.593949 4.71571 0.798352 4.68718L5.047 4.32333L6.68952 0.513664C6.76253 0.342443 6.87582 0.214026 7.02942 0.128416C7.18243 0.0428054 7.33923 0 7.49983 0C7.66044 0 7.81753 0.0428054 7.97113 0.128416C8.12414 0.214026 8.23714 0.342443 8.31014 0.513664L9.95267 4.32333L14.2013 4.68718C14.4057 4.71571 14.5663 4.77992 14.6831 4.8798C14.7999 4.97968 14.8875 5.1081 14.9459 5.26505C15.0043 5.422 15.0154 5.58238 14.9792 5.74618C14.9424 5.91055 14.851 6.05695 14.705 6.18536L11.4857 8.9035L12.4493 12.9486C12.4931 13.1341 12.4785 13.3019 12.4055 13.452C12.3325 13.6015 12.2303 13.7262 12.0989 13.8261C11.9675 13.926 11.8142 13.9831 11.639 13.9973C11.4638 14.0116 11.2959 13.9688 11.1353 13.8689L7.49983 11.7286Z" fill="#FFE600"/>
</svg>
