<svg width="61" height="43" viewBox="0 0 61 43" fill="none" xmlns="http://www.w3.org/2000/svg">
<path d="M9.15 18.4286C12.5145 18.4286 15.25 15.6739 15.25 12.2857C15.25 8.89754 12.5145 6.14286 9.15 6.14286C5.78547 6.14286 3.05 8.89754 3.05 12.2857C3.05 15.6739 5.78547 18.4286 9.15 18.4286ZM51.85 18.4286C55.2145 18.4286 57.95 15.6739 57.95 12.2857C57.95 8.89754 55.2145 6.14286 51.85 6.14286C48.4855 6.14286 45.75 8.89754 45.75 12.2857C45.75 15.6739 48.4855 18.4286 51.85 18.4286ZM54.9 21.5H48.8C47.1225 21.5 45.607 22.1815 44.5014 23.2853C48.3425 25.4065 51.0684 29.2362 51.6594 33.7857H57.95C59.637 33.7857 61 32.4132 61 30.7143V27.6429C61 24.2547 58.2645 21.5 54.9 21.5ZM30.5 21.5C36.3998 21.5 41.175 16.6913 41.175 10.75C41.175 4.80871 36.3998 0 30.5 0C24.6002 0 19.825 4.80871 19.825 10.75C19.825 16.6913 24.6002 21.5 30.5 21.5ZM37.82 24.5714H37.0289C35.0464 25.5312 32.8447 26.1071 30.5 26.1071C28.1553 26.1071 25.9631 25.5312 23.9711 24.5714H23.18C17.1181 24.5714 12.2 29.5241 12.2 35.6286V38.3929C12.2 40.9364 14.2492 43 16.775 43H44.225C46.7508 43 48.8 40.9364 48.8 38.3929V35.6286C48.8 29.5241 43.8819 24.5714 37.82 24.5714ZM16.4986 23.2853C15.393 22.1815 13.8775 21.5 12.2 21.5H6.1C2.73547 21.5 0 24.2547 0 27.6429V30.7143C0 32.4132 1.36297 33.7857 3.05 33.7857H9.33109C9.93156 29.2362 12.6575 25.4065 16.4986 23.2853Z" fill="url(#paint0_linear_3_1191)"/>
<defs>
<linearGradient id="paint0_linear_3_1191" x1="30.5" y1="0" x2="30.5" y2="43" gradientUnits="userSpaceOnUse">
<stop stop-color="#07A4E7"/>
<stop offset="1" stop-color="#046DA8"/>
</linearGradient>
</defs>
</svg>
